<svg width="32" height="32" viewBox="0 0 32 32" fill="none" xmlns="http://www.w3.org/2000/svg">
<path d="M16.0001 0.640137C7.51694 0.640137 0.640137 7.51694 0.640137 16.0001C0.640137 24.4833 7.51694 31.3601 16.0001 31.3601C24.4833 31.3601 31.3601 24.4833 31.3601 16.0001C31.3601 7.51694 24.4833 0.640137 16.0001 0.640137ZM12.2401 22.3665H9.12974V12.3569H12.2401V22.3665ZM10.6657 11.1281C9.68334 11.1281 9.04814 10.4321 9.04814 9.57134C9.04814 8.69294 9.70254 8.01774 10.7057 8.01774C11.7089 8.01774 12.3233 8.69294 12.3425 9.57134C12.3425 10.4321 11.7089 11.1281 10.6657 11.1281ZM23.6001 22.3665H20.4897V16.8193C20.4897 15.5281 20.0385 14.6513 18.9137 14.6513C18.0545 14.6513 17.5441 15.2449 17.3185 15.8161C17.2353 16.0193 17.2145 16.3073 17.2145 16.5937V22.3649H14.1025V15.5489C14.1025 14.2993 14.0625 13.2545 14.0209 12.3553H16.7233L16.8657 13.7457H16.9281C17.3377 13.0929 18.3409 12.1297 20.0193 12.1297C22.0657 12.1297 23.6001 13.5009 23.6001 16.4481V22.3665Z" fill="white"/>
</svg>
